<?xml version="1.0" encoding="UTF-8" standalone="no"?>
<!-- Generator: Adobe Illustrator 13.0.2, SVG Export Plug-In . SVG Version: 6.00 Build 14948)  -->

<svg
   xmlns:dc="http://purl.org/dc/elements/1.1/"
   xmlns:cc="http://creativecommons.org/ns#"
   xmlns:rdf="http://www.w3.org/1999/02/22-rdf-syntax-ns#"
   xmlns:svg="http://www.w3.org/2000/svg"
   xmlns="http://www.w3.org/2000/svg"
   xmlns:sodipodi="http://sodipodi.sourceforge.net/DTD/sodipodi-0.dtd"
   xmlns:inkscape="http://www.inkscape.org/namespaces/inkscape"
   version="1.1"
   id="Divided"
   x="0px"
   y="0px"
   width="132"
   height="132"
   viewBox="0 0 132 132"
   enable-background="new 0 0 641 481"
   xml:space="preserve"
   inkscape:version="0.91 r13725"
   sodipodi:docname="logo1.svg"><metadata
   id="metadata5729"><rdf:RDF><cc:Work
       rdf:about=""><dc:format>image/svg+xml</dc:format><dc:type
         rdf:resource="http://purl.org/dc/dcmitype/StillImage" /><dc:title></dc:title></cc:Work></rdf:RDF></metadata><defs
   id="defs5727"><filter
     inkscape:label="Neon"
     inkscape:menu="Bevels"
     inkscape:menu-tooltip="Neon light effect"
     x="-0.25"
     y="-0.25"
     width="1.5"
     height="1.5"
     style="color-interpolation-filters:sRGB"
     id="filter5831"><feGaussianBlur
       stdDeviation="1"
       result="result1"
       id="feGaussianBlur5833" /><feComposite
       in="result1"
       in2="result1"
       result="result4"
       operator="in"
       id="feComposite5835" /><feGaussianBlur
       stdDeviation="7"
       result="result6"
       in="result4"
       id="feGaussianBlur5837" /><feComposite
       operator="over"
       in="result6"
       in2="result4"
       result="result8"
       id="feComposite5839" /><feComposite
       operator="in"
       result="fbSourceGraphic"
       in="result6"
       in2="result8"
       id="feComposite5841" /><feSpecularLighting
       specularExponent="45"
       specularConstant="2"
       surfaceScale="2.5"
       lighting-color="#ffffff"
       result="result1"
       in="fbSourceGraphic"
       id="feSpecularLighting5843"><fePointLight
         z="20000"
         y="-10000"
         x="-5000"
         id="fePointLight5845" /></feSpecularLighting><feComposite
       operator="in"
       result="result2"
       in="result1"
       in2="fbSourceGraphic"
       id="feComposite5847" /><feComposite
       k3="1.5"
       k2="1.2"
       operator="arithmetic"
       result="result4"
       in="fbSourceGraphic"
       in2="result2"
       id="feComposite5849"
       k1="0"
       k4="0" /><feComposite
       operator="over"
       in2="result4"
       result="result9"
       id="feComposite5851" /><feBlend
       mode="screen"
       in2="result9"
       id="feBlend5853" /></filter></defs><sodipodi:namedview
   pagecolor="#ffffff"
   bordercolor="#666666"
   borderopacity="1"
   objecttolerance="10"
   gridtolerance="10"
   guidetolerance="10"
   inkscape:pageopacity="0"
   inkscape:pageshadow="2"
   inkscape:window-width="1536"
   inkscape:window-height="801"
   id="namedview5725"
   showgrid="false"
   inkscape:zoom="1.2884567"
   inkscape:cx="252.70488"
   inkscape:cy="29.794196"
   inkscape:window-x="-8"
   inkscape:window-y="-8"
   inkscape:window-maximized="1"
   inkscape:current-layer="Divided" />
<path
   d="m 72.666708,383.91404 c -1.718,-4.759 6.39,-7.139 2.414,-11.417 -4.079,-1.692 -8.56,-2.58 -12.981,-2.35 -2.876,0.149 -7.797,0.606 -9.081,3.603 -1.401,3.267 4.292,6.112 3.043,10.168 -11.085,4.399 -22.21,1.302 -33.394,-0.947 0.499,3.394 0.782,6.771 -0.292,10.779 -1.465,5.464 -1.702,12.501 6.181,12.365 6.468,-0.111 16.413,-7.236 16.118,5.043 -0.083,3.458 -1.065,8.631 -5.2,9.197 -3.092,0.424 -5.67,-1.703 -8.419,-2.691 -8.396,-3.017 -9.864,9.867 -9.186,15.395 0.381,3.107 0.839,5.818 1.158,8.416 12.702,0.263 25.203,1.435 28.271,2.014 2.279,0.43 5.011,-0.103 4.993,2.783 -0.013,2.09 -1.403,3.715 -2.533,5.342 -2.746,3.954 0.993,5.758 4.663,6.6 3.997,0.918 8.261,0.816 12.175,-0.437 5.544,-1.774 6.715,-3.384 3.17,-7.703 -6.563,-7.997 15.639,-7.954 19.88,-8.28 4.191991,-0.323 8.401992,-0.497 12.611992,-0.504 0.653,-5.266 2.028,-10.483 1.335,-15.91 -0.66,-5.164 -2.437,-8.707 -8.024001,-7.953 -2.146,2.218 -5.214991,3.515 -8.198991,2.2 -3.094,-1.364 -4.981,-4.766 -5.24,-8.038 -0.374,-4.745 2.103,-5.042 4.528,-8.07 3.721,-1.232 8.235991,2.175 12.176992,2.374 3.755,0.19 4.674,-4.162 4.956,-7.482 0.428,-5.032 -1.193,-9.924 -2.913,-14.757 -10.781992,2.193 -21.502992,4.635 -32.211992,0.26 z"
   id="path5723"
   inkscape:connector-curvature="0"
   style="clip-rule:evenodd;fill:#917c6f;fill-rule:evenodd;stroke:#000000;stroke-linecap:round;filter:url(#filter5831)"
   transform="matrix(1.0047083,0,0,0.97273397,5.2833293e-7,-335.88504)" />
<text
   xml:space="preserve"
   style="font-style:normal;font-weight:normal;font-size:40px;line-height:125%;font-family:sans-serif;letter-spacing:0px;word-spacing:0px;fill:#000000;fill-opacity:1;stroke:none;stroke-width:1px;stroke-linecap:butt;stroke-linejoin:miter;stroke-opacity:1"
   x="56.159229"
   y="50.787857"
   id="text5855"
   sodipodi:linespacing="125%"><tspan
     sodipodi:role="line"
     id="tspan5857"
     x="56.159229"
     y="50.787857"></tspan></text>
<text
   xml:space="preserve"
   style="font-style:normal;font-variant:normal;font-weight:normal;font-stretch:normal;font-size:40px;line-height:125%;font-family:Georgia;-inkscape-font-specification:'Georgia, Normal';text-align:start;letter-spacing:0px;word-spacing:0px;writing-mode:lr-tb;text-anchor:start;fill:#000000;fill-opacity:1;stroke:none;stroke-width:1px;stroke-linecap:butt;stroke-linejoin:miter;stroke-opacity:1"
   x="49.174126"
   y="75.623795"
   id="text5859"
   sodipodi:linespacing="125%"><tspan
     sodipodi:role="line"
     id="tspan5861"
     x="49.174126"
     y="75.623795">X</tspan></text>
<text
   xml:space="preserve"
   style="font-style:normal;font-variant:normal;font-weight:normal;font-stretch:normal;font-size:12.5px;line-height:125%;font-family:sans-serif;-inkscape-font-specification:'sans-serif, Normal';text-align:start;letter-spacing:0px;word-spacing:0px;writing-mode:lr-tb;text-anchor:start;fill:#000000;fill-opacity:1;stroke:none;stroke-width:1px;stroke-linecap:butt;stroke-linejoin:miter;stroke-opacity:1"
   x="18.905354"
   y="128.40009"
   id="text5863"
   sodipodi:linespacing="125%"><tspan
     sodipodi:role="line"
     id="tspan5867"
     x="18.905354"
     y="128.40009"></tspan></text>
<text
   xml:space="preserve"
   style="font-style:normal;font-variant:normal;font-weight:normal;font-stretch:normal;font-size:12.5px;line-height:125%;font-family:Georgia;-inkscape-font-specification:'Georgia, Normal';text-align:start;letter-spacing:0px;word-spacing:0px;writing-mode:lr-tb;text-anchor:start;fill:#000000;fill-opacity:1;stroke:none;stroke-width:1px;stroke-linecap:butt;stroke-linejoin:miter;stroke-opacity:1"
   x="42.824211"
   y="132.78998"
   id="text5869"
   sodipodi:linespacing="125%"
   transform="scale(1.0567428,0.94630405)"><tspan
     sodipodi:role="line"
     id="tspan7695"
     x="42.824211"
     y="132.78998">XowA</tspan></text>
</svg>