<svg xmlns="http://www.w3.org/2000/svg" viewBox="0 0 710 710"><title>sharingheritageVisual</title><path d="M666.29,178,232,687.74M709,293.51,232,687.74M709.08,416.49,232,687.71M666.33,532,232,687.74m354.08-61.5L232,687.73M.91,416.48,232.08,687.82M.91,293.51,232,687.74M43.62,178,232,687.74m0-665.48V687.74m0,0L477.93,22.26M232,687.74,43.62,532M709.09,416.5,43.62,532m542.46,94.21L43.62,532M355,709.09,43.62,532m0-354.09V532M232,22.26,43.62,532M355,.91,43.62,532M477.93,22.26,43.62,532M586.07,83.75,43.62,532M709,293.51,43.62,532m0,0L666.29,178M43.62,532,.91,293.51M586.07,626.25.91,293.51m477,394.23L.91,293.51M355,709.09.91,293.51M124,626.15.91,293.51M232,22.26.91,293.51M355,.91.91,293.51m477-271.25L.91,293.51M666.29,178,.91,293.51m708.12,0H.91m0,0,708.18,123M.91,293.51l123-209.76M43.62,532,123.88,83.75M.91,416.49l123-332.74M355,.91,123.88,83.75M477.93,22.26l-354,61.49M355,709.09,123.88,83.75M232,687.74l-108.13-604m.12,542.4-.12-542.4M666.29,178,123.88,83.75M709.09,416.5,123.88,83.75m354.05,604-354-604m0,0,462.19,542.5m0-542.5L355,.91M666.29,178,355,.91M124,626.15,355,.91M.91,416.49,355,.91M43.62,178,355,.91M709.09,416.5,355,.91m231.1,625.34L355,.91m123,686.83L355,.91M232,687.7,355,.91m0,0V709.09M232,687.74H477.93m0-665.48V687.74M666.29,178,477.93,687.74M709.09,416.5,477.93,687.74M124,626.15l353.93,61.59M43.62,532l434.31,155.7M.94,416.49l477,271.25M43.62,178,477.93,687.74m0,0L232,22.26M477.93,687.74,232,22.26M477.93,687.74,666.33,532M232,22.26,666.33,532M355,.91,666.33,532M477.93,22.26,666.33,532m0-354.09,0,354.09M355,709.09,666.33,532M124,626.15,666.33,532M43.62,532H666.33M.91,416.49,666.33,532M.91,293.51,666.33,532M123.9,83.76,666.33,532m0,0L43.62,178M666.33,532,43.62,178M666.33,532,709,293.51m-123,332.74L709,293.51M477.93,687.74,709,293.51m-123-209.76L709,293.51M43.62,178,709,293.51M123.86,83.74,709,293.51M232,22.26,709,293.51M355,.91,709,293.51M477.93,22.26,709,293.51M355,709.08,709,293.51M124,626.15,709,293.51m-708.12,0H709m0,0L.91,416.49m708.18,0-123-332.75M666.33,532,586.07,83.75m0,542.51V83.75m-108.14,604,108.14-604M355,709.09,586.07,83.75M232,22.26,586.07,83.75m-462.22,0H586.07M43.62,178l542.45-94.2M.91,416.49,586.07,83.75M.91,293.51,586.07,83.75M232,687.74l354.06-604m0,0L124,626.15" fill="none" stroke="#fff" stroke-linecap="round" stroke-linejoin="bevel" stroke-width="0.36"/></svg>